<svg xmlns="http://www.w3.org/2000/svg" viewBox="0 0 300 200">
  <defs>
    <linearGradient id="bg" x1="0" y1="0" x2="1" y2="1">
      <stop offset="0" stop-color="#1e1b4b"/>
      <stop offset="1" stop-color="#0f172a"/>
    </linearGradient>
    <linearGradient id="phone" x1="0" y1="0" x2="0" y2="1">
      <stop offset="0" stop-color="#38bdf8"/>
      <stop offset="1" stop-color="#818cf8"/>
    </linearGradient>
  </defs>
  <rect width="300" height="200" fill="url(#bg)"/>
  <rect x="214" y="12" width="76" height="176" rx="14" fill="#1e293b" stroke="#334155" stroke-width="2"/>
  <rect x="220" y="20" width="64" height="160" rx="9" fill="#0f172a"/>
  <rect x="246" y="24" width="12" height="3" rx="1.5" fill="#334155"/>
  <rect x="224" y="30" width="56" height="20" rx="4" fill="#f59e0b" opacity="0.9"/>
  <text x="252" y="44" font-family="Arial" font-size="9" font-weight="bold" fill="#0f172a" text-anchor="middle">HOSTEL</text>
  <rect x="224" y="54" width="56" height="6" rx="3" fill="#334155"/>
  <rect x="224" y="56" width="40" height="2" rx="1" fill="#f59e0b"/>
  <rect x="226" y="68" width="12" height="12" rx="2" fill="#818cf8"/>
  <rect x="242" y="68" width="24" height="4" rx="2" fill="#475569"/>
  <rect x="242" y="76" width="16" height="4" rx="2" fill="#475569"/>
  <rect x="226" y="86" width="12" height="12" rx="2" fill="#10b981"/>
  <rect x="242" y="86" width="24" height="4" rx="2" fill="#475569"/>
  <rect x="242" y="94" width="16" height="4" rx="2" fill="#475569"/>
  <rect x="226" y="104" width="12" height="12" rx="2" fill="#f43f5e"/>
  <rect x="242" y="104" width="24" height="4" rx="2" fill="#475569"/>
  <rect x="242" y="112" width="16" height="4" rx="2" fill="#475569"/>
  <rect x="226" y="122" width="12" height="12" rx="2" fill="#f59e0b"/>
  <rect x="242" y="122" width="24" height="4" rx="2" fill="#475569"/>
  <rect x="242" y="130" width="16" height="4" rx="2" fill="#475569"/>
  <rect x="240" y="142" width="24" height="24" rx="12" fill="#f59e0b"/>
  <text x="252" y="158" font-family="Arial" font-size="12" fill="#0f172a" text-anchor="middle">A</text>
  <g>
    <rect x="14" y="70" width="44" height="52" rx="4" fill="url(#phone)" opacity="0.9"/>
    <path d="M18 82 L36 66 L54 82 L54 118 L36 130 L18 118 Z" fill="#e2e8f0" opacity="0.92"/>
    <path d="M36 66 L36 78 M18 94 L26 94 M18 106 L26 106" stroke="#94a3b8" stroke-width="2" opacity="0.7"/>
    <text x="36" y="96" font-family="Arial" font-size="9" fill="#1e293b" text-anchor="middle" font-weight="bold">ROOM</text>
    <text x="36" y="108" font-family="Arial" font-size="8" fill="#1e293b" text-anchor="middle">ALLOC.</text>
  </g>
  <g opacity="0.9">
    <rect x="112" y="46" width="36" height="42" rx="3" fill="#0ea5e9"/>
    <circle cx="130" cy="64" r="9" fill="#e0f2fe"/>
    <text x="130" y="67" font-family="Arial" font-size="8" fill="#0ea5e9" text-anchor="middle">3</text>
    <path d="M112 88 L130 80 L148 88" stroke="#e0f2fe" stroke-width="2" fill="none"/>
    <text x="130" y="101" font-family="Arial" font-size="8" fill="#e2e8f0" text-anchor="middle">LOGIN</text>
    <text x="130" y="111" font-family="Arial" font-size="7" fill="#94a3b8" text-anchor="middle">Admin / Warden / Student</text>
  </g>
  <circle cx="190" cy="168" r="18" fill="#f59e0b"/>
  <rect x="182" y="162" width="16" height="12" rx="2" fill="#0f172a"/>
  <path d="M186 166 L196 166 L196 172 L186 172 Z" fill="#fcd34d"/>
  <path d="M184 164 h12 M184 174 h12" stroke="#0f172a" stroke-width="1.5"/>
  <text x="190" y="194" font-family="Arial" font-size="7" fill="#94a3b8" text-anchor="middle">GIRLS / BOYS WARDEN</text>
  <circle cx="274" cy="30" r="22" fill="#10b981" opacity="0.25"/>
  <circle cx="274" cy="30" r="10" fill="#34d399" opacity="0.8"/>
  <path d="M270 30 l3 3 l5 -6" stroke="#052e16" stroke-width="2" fill="none"/>
</svg>